<svg xmlns="http://www.w3.org/2000/svg" enable-background="new 0 0 32 32" viewBox="0 0 32 32" id="filter"><path d="M26.1630859 19.1728516h-4c-.5527344 0-1 .4472656-1 1s.4472656 1 1 1h4c.5527344 0 1-.4472656 1-1S26.7158203 19.1728516 26.1630859 19.1728516zM27.1630859 24.1728516c0-.5527344-.4472656-1-1-1h-4c-.5527344 0-1 .4472656-1 1s.4472656 1 1 1h4C26.7158203 25.1728516 27.1630859 24.7255859 27.1630859 24.1728516zM26.1630859 15.1728516h-4c-.5527344 0-1 .4472656-1 1s.4472656 1 1 1h4c.5527344 0 1-.4472656 1-1S26.7158203 15.1728516 26.1630859 15.1728516z"></path><path d="M13.0300293 29.9199829C13.1500244 29.9699707 13.2800293 30 13.4099731 30c.2600098 0 .5100098-.1000366.7000122-.2900391l4.5700073-4.4799805c.2000122-.1900024.2999878-.4400024.2999878-.710022v-8.4400024L23.7600098 8H7.6300049l4.7799683 8.0799561V29C12.4099731 29.3999634 12.6599731 29.7699585 13.0300293 29.9199829zM25.5599976 2H5.8400269C5.4799805 2 5.1500244 2.1900024 4.9699707 2.5 4.789978 2.8200073 4.789978 3.2000122 4.9799805 3.5100098L6.4500122 6h18.5l1.4699707-2.4899902C26.5999756 3.2000122 26.6099854 2.8200073 26.4299927 2.5 26.25 2.1900024 25.9199829 2 25.5599976 2z"></path></svg>